<?xml version="1.0" standalone="no"?>
<svg viewBox="0 0 200 200" xmlns="http://www.w3.org/2000/svg">
  <path fill="#D0E2FF" d="M36.6,-67C45.1,-58.4,48.1,-43.9,49.5,-31.8C51,-19.7,50.9,-9.8,55.3,2.5C59.6,14.9,68.4,29.7,64.1,37C59.8,44.2,42.5,43.9,29.6,49.1C16.8,54.4,8.4,65.2,-2.3,69.3C-13.1,73.4,-26.2,70.7,-38.1,64.9C-50,59.1,-60.7,50.2,-69.2,38.8C-77.8,27.5,-84.1,13.8,-80.7,1.9C-77.4,-9.9,-64.4,-19.8,-57.4,-33.7C-50.4,-47.6,-49.2,-65.5,-40.7,-74.1C-32.1,-82.7,-16,-82,-1,-80.2C14,-78.5,28,-75.7,36.6,-67Z" transform="translate(100 100)" />
</svg>
